<svg xmlns="http://www.w3.org/2000/svg" width="512" height="512" viewBox="0 0 680 680">
  <rect width="680" height="680" rx="100" fill="#0a0a0f"/>
  <g fill="#ff4444">
    <rect x="200" y="180" width="40" height="40"/>
    <rect x="440" y="180" width="40" height="40"/>
    <rect x="240" y="220" width="40" height="40"/>
    <rect x="400" y="220" width="40" height="40"/>
    <rect x="200" y="260" width="40" height="40"/>
    <rect x="240" y="260" width="40" height="40"/>
    <rect x="280" y="260" width="40" height="40"/>
    <rect x="320" y="260" width="40" height="40"/>
    <rect x="360" y="260" width="40" height="40"/>
    <rect x="400" y="260" width="40" height="40"/>
    <rect x="440" y="260" width="40" height="40"/>
    <rect x="160" y="300" width="40" height="40"/>
    <rect x="200" y="300" width="40" height="40"/>
    <rect x="280" y="300" width="40" height="40"/>
    <rect x="320" y="300" width="40" height="40"/>
    <rect x="360" y="300" width="40" height="40"/>
    <rect x="400" y="300" width="40" height="40"/>
    <rect x="480" y="300" width="40" height="40"/>
    <rect x="520" y="300" width="40" height="40"/>
    <rect x="120" y="340" width="40" height="40"/>
    <rect x="160" y="340" width="40" height="40"/>
    <rect x="200" y="340" width="40" height="40"/>
    <rect x="240" y="340" width="40" height="40"/>
    <rect x="280" y="340" width="40" height="40"/>
    <rect x="320" y="340" width="40" height="40"/>
    <rect x="360" y="340" width="40" height="40"/>
    <rect x="400" y="340" width="40" height="40"/>
    <rect x="440" y="340" width="40" height="40"/>
    <rect x="480" y="340" width="40" height="40"/>
    <rect x="520" y="340" width="40" height="40"/>
    <rect x="120" y="380" width="40" height="40"/>
    <rect x="200" y="380" width="40" height="40"/>
    <rect x="240" y="380" width="40" height="40"/>
    <rect x="280" y="380" width="40" height="40"/>
    <rect x="320" y="380" width="40" height="40"/>
    <rect x="360" y="380" width="40" height="40"/>
    <rect x="400" y="380" width="40" height="40"/>
    <rect x="440" y="380" width="40" height="40"/>
    <rect x="520" y="380" width="40" height="40"/>
    <rect x="240" y="420" width="40" height="40"/>
    <rect x="280" y="420" width="40" height="40"/>
    <rect x="360" y="420" width="40" height="40"/>
    <rect x="400" y="420" width="40" height="40"/>
    <rect x="200" y="460" width="40" height="40"/>
    <rect x="240" y="460" width="40" height="40"/>
    <rect x="400" y="460" width="40" height="40"/>
    <rect x="440" y="460" width="40" height="40"/>
  </g>
  <rect x="240" y="300" width="40" height="40" fill="#0a0a0f"/>
  <rect x="440" y="300" width="40" height="40" fill="#0a0a0f"/>
</svg>
